# xmcd
#
# Track frame offsets:
#	150
#	16050
#	29010
#
# Disc length: 666 seconds
#
# Revision: 3
# Processed by: cddbd v1.5.2PL0 Copyright (c) Steve Scherf et al.
# Submitted via: EasyCDDAExtractor 11.0.2.1
#
DISCID=1a029803
DTITLE=Madonna Hip Hop Massaker - Super Pop Peep Show (1995)
DYEAR=1995
DGENRE=Country
TTITLE0=Super Pop Peep Show
TTITLE1=Old Fashioned
TTITLE2=Downtown
EXTD=YEAR: 1996
EXTT0=
EXTT1=
EXTT2=
PLAYORDER=
